<svg width="203" height="59" viewBox="0 0 203 59" fill="none" xmlns="http://www.w3.org/2000/svg">
<path d="M17.6233 48.6628C18.0262 48.8906 18.4126 49.1068 18.7973 49.3247C20.9941 50.5698 23.1924 51.8149 25.3859 53.065C25.524 53.1436 25.621 53.1453 25.7608 53.065C32.5515 49.1773 39.344 45.2928 46.1397 41.4133C46.291 41.3265 46.3469 41.2364 46.3469 41.0611C46.3419 39.87 46.3502 38.6789 46.3551 37.4879C46.3633 35.4728 46.3732 33.4593 46.3765 31.4442C46.3765 31.2918 46.4225 31.2099 46.5557 31.1312C48.0503 30.2564 49.5417 29.3733 51.033 28.4919C51.0873 28.4592 51.1432 28.4313 51.2287 28.3838C51.232 28.4641 51.2369 28.5214 51.2385 28.5804C51.2468 30.7282 51.255 32.876 51.2649 35.0239C51.2764 37.9319 51.2879 40.8399 51.3076 43.7479C51.3092 43.9527 51.2451 44.0559 51.0675 44.1575C43.2409 48.6497 35.4175 53.1485 27.5941 57.6457C27.0499 57.9586 26.5023 58.2699 25.9614 58.5877C25.8495 58.6533 25.764 58.65 25.6506 58.5943C23.1612 57.3967 20.7721 56.0139 18.3665 54.6607C18.1446 54.5362 17.9209 54.4166 17.7055 54.2822C17.6529 54.2495 17.6019 54.1692 17.6019 54.1102C17.5987 52.3163 17.6019 50.524 17.6052 48.73C17.6069 48.7185 17.6135 48.7054 17.6233 48.6628Z" fill="#233D7C"/>
<path d="M12.0215 7.74091C13.4043 6.94797 14.7592 6.1714 16.1124 5.39484C19.2118 3.61727 22.3113 1.83971 25.409 0.0572205C25.5324 -0.0148653 25.6211 -0.0214183 25.7494 0.0523058C32.8329 4.12024 39.918 8.18489 47.0031 12.2479C48.3793 13.0376 49.7556 13.8289 51.1335 14.6136C51.2551 14.6824 51.2962 14.7578 51.2962 14.8954C51.288 17.176 51.2847 19.4581 51.2798 21.7387C51.2782 22.3842 51.2699 23.0313 51.2699 23.6768C51.2699 23.7816 51.2453 23.8488 51.1483 23.9045C49.6175 24.7941 48.0883 25.687 46.5575 26.5782C46.5312 26.5946 46.5016 26.6061 46.4539 26.629C46.4457 26.57 46.4358 26.5242 46.4358 26.4767C46.4259 25.4003 46.4177 24.3223 46.4095 23.2459C46.3964 21.6502 46.3848 20.0528 46.3717 18.4571C46.37 18.1852 46.3553 17.9116 46.3618 17.6396C46.3651 17.4954 46.3224 17.4151 46.1925 17.3414C42.585 15.2771 38.9791 13.208 35.3732 11.1404C32.1637 9.29895 28.9541 7.45912 25.7461 5.61438C25.6261 5.54557 25.5406 5.54393 25.4205 5.61438C22.6713 7.21174 19.9189 8.80418 17.1713 10.4032C17.0266 10.4867 16.9247 10.4916 16.7767 10.4081C15.2689 9.55616 13.7545 8.71243 12.2435 7.86542C12.1744 7.82938 12.1086 7.7917 12.0215 7.74091Z" fill="#233D7C"/>
<path d="M12.8663 12.8245C11.8057 13.434 10.7665 14.0336 9.72573 14.6299C8.09134 15.5687 6.45859 16.5091 4.82091 17.4462C4.70745 17.5117 4.66306 17.5789 4.6647 17.7116C4.66799 19.1435 4.66306 20.5754 4.66142 22.0089C4.65813 28.3082 4.65813 34.6075 4.64991 40.9068C4.64991 41.092 4.69759 41.1968 4.86695 41.2918C7.3021 42.6828 9.73724 44.0786 12.1642 45.4843C12.5917 45.7317 12.9879 46.0331 13.3891 46.3215C13.4533 46.3673 13.5092 46.4755 13.5092 46.5541C13.5108 47.6239 13.5042 48.6937 13.4977 49.7635C13.4927 50.3648 13.4845 50.9677 13.4763 51.569C13.4763 51.6378 13.4763 51.7049 13.4763 51.8C13.4007 51.7607 13.3447 51.7361 13.2921 51.7066C8.91347 49.1983 4.53645 46.6901 0.156147 44.1851C0.0377608 44.1179 0.00816514 44.0409 0.00816514 43.9148C0.0147422 36.2032 0.0196752 28.4901 0.0213195 20.7785C0.0213195 19.4744 -0.00992151 18.1687 0.00323256 16.8646C0.0098096 16.1372 0.0739357 15.4114 0.126552 14.684C0.131485 14.607 0.221918 14.5136 0.297554 14.4694C2.44002 13.2308 4.58578 11.9972 6.73154 10.7619C7.14425 10.5243 7.55531 10.2835 7.97131 10.0541C8.02886 10.023 8.13409 10.0197 8.18835 10.0525C9.7208 10.9519 11.25 11.8579 12.7808 12.7622C12.8054 12.7753 12.8235 12.7917 12.8663 12.8245Z" fill="#233D7C"/>
<path d="M17.5806 29.3047C17.5806 27.8106 17.5823 26.3148 17.579 24.8207C17.579 24.7109 17.6152 24.6503 17.7089 24.5962C20.3117 23.1152 22.9146 21.6309 25.5142 20.1449C25.6046 20.0925 25.6704 20.1023 25.7542 20.1515C28.362 21.6636 30.9698 23.1758 33.5809 24.6831C33.6779 24.7388 33.7075 24.801 33.7075 24.9075C33.7042 25.363 33.7092 25.82 33.7108 26.2755C33.724 28.7461 33.7355 31.2166 33.7519 33.6872C33.7536 33.8347 33.7157 33.9215 33.5793 34.0001C30.9665 35.5172 28.3588 37.0392 25.751 38.5661C25.6243 38.6398 25.5372 38.6431 25.4106 38.5678C22.834 37.0523 20.2558 35.5402 17.6727 34.0345C17.5247 33.9477 17.4803 33.856 17.482 33.6921C17.4886 32.2291 17.4853 30.7661 17.4853 29.3031C17.5165 29.3047 17.5477 29.3047 17.5806 29.3047Z" fill="#FE752F"/>
<path d="M37.6272 31.7439C37.6222 31.6701 37.6173 31.621 37.6157 31.5718C37.6074 29.7533 37.5976 27.9348 37.5894 26.1179C37.5844 24.9842 37.5779 23.8505 37.5811 22.7151C37.5811 22.5578 37.5236 22.4792 37.3937 22.4055C31.9183 19.2484 26.4446 16.0865 20.9725 12.9262C20.9182 12.8951 20.8656 12.8623 20.813 12.8312C20.8196 12.8115 20.8179 12.7935 20.8261 12.7902C21.9969 12.1038 23.1626 11.4075 24.3432 10.7374C24.7658 10.4966 25.2229 10.3147 25.6718 10.1214C25.754 10.087 25.8888 10.0936 25.9661 10.1394C31.4267 13.3096 36.8856 16.4846 42.3446 19.6564C42.4498 19.717 42.4761 19.7858 42.4761 19.8989C42.4761 21.0391 42.481 22.1794 42.4876 23.3197C42.4975 25.1005 42.5073 26.8797 42.5205 28.6606C42.5221 28.772 42.4991 28.8424 42.3939 28.9063C40.8401 29.8303 39.2879 30.7609 37.7357 31.6898C37.7094 31.7029 37.6814 31.716 37.6272 31.7439Z" fill="#233D7C"/>
<path d="M17.6311 38.5939C18.2247 38.9264 18.7936 39.2459 19.3625 39.567C21.4261 40.727 23.4896 41.8852 25.5515 43.0501C25.6732 43.1189 25.7587 43.114 25.8771 43.0435C31.2933 39.7833 36.8081 36.6934 42.2868 33.5413C42.3394 33.5118 42.3953 33.4872 42.4775 33.4463C42.4775 33.5348 42.4775 33.5954 42.4775 33.656C42.4775 35.3861 42.4759 37.1161 42.4808 38.8462C42.4808 38.9805 42.4496 39.0591 42.3246 39.1312C36.8689 42.2588 31.4149 45.3896 25.9626 48.5253C25.8442 48.5925 25.7521 48.5761 25.642 48.5401C24.7869 48.255 24.0043 47.8225 23.2298 47.3752C21.4261 46.3349 19.6256 45.2929 17.8202 44.2559C17.7035 44.1887 17.6706 44.115 17.6689 43.9872C17.6607 42.4095 17.6459 40.8334 17.6344 39.2557C17.6295 39.046 17.6311 38.838 17.6311 38.5939Z" fill="#233D7C"/>
<path d="M21.4668 17.7379C21.0393 18.1442 20.5805 18.4898 20.0774 18.7782C18.101 19.9119 16.1279 21.0489 14.1466 22.1744C13.872 22.3301 13.7026 22.5332 13.6648 22.833C13.6056 23.2967 13.5283 23.7619 13.5267 24.2272C13.5184 26.9141 13.5283 29.5992 13.5332 32.2861C13.5365 33.9326 13.5415 35.5807 13.5448 37.2272C13.548 38.6149 13.5497 40.0025 13.5513 41.3902C13.5513 41.459 13.5513 41.5278 13.5513 41.631C13.2241 41.4819 12.9183 41.3476 12.6174 41.2034C11.3678 40.6038 10.1806 39.896 9.00167 39.1703C8.88328 39.0965 8.88821 39.0048 8.88821 38.8967C8.89315 35.697 8.89643 32.4974 8.90137 29.2978C8.90466 27.2827 8.90959 25.2692 8.91452 23.2541C8.91781 22.0696 8.92439 20.8851 8.92439 19.7006C8.92439 19.5711 8.96056 19.499 9.0773 19.4335C11.616 18.0065 14.1531 16.5763 16.6902 15.146C16.7889 15.0903 16.8645 15.0625 16.9813 15.1297C18.4331 15.9767 19.8916 16.8155 21.3468 17.6576C21.3862 17.6789 21.4208 17.7067 21.4668 17.7379Z" fill="#233D7C"/>
<path d="M91.8693 16.9878V41.6723H86.9003V31.169H76.2883V41.6723H71.3193V16.9878H76.2883V27.1371H86.9003V16.9878H91.8693Z" fill="#233D7C"/>
<path d="M114.904 33.361H100.53C100.648 34.7748 101.145 35.884 102.021 36.6851C102.896 37.4862 103.973 37.8876 105.251 37.8876C107.095 37.8876 108.409 37.098 109.19 35.5186H114.55C113.983 37.406 112.895 38.9558 111.285 40.1698C109.675 41.3838 107.701 41.9916 105.357 41.9916C103.463 41.9916 101.766 41.5738 100.264 40.7367C98.7607 39.8995 97.59 38.715 96.7497 37.1832C95.9095 35.6513 95.4902 33.882 95.4902 31.8783C95.4902 29.8501 95.9046 28.0709 96.7333 26.5374C97.562 25.0056 98.7212 23.826 100.211 23.0003C101.702 22.1746 103.417 21.7617 105.357 21.7617C107.227 21.7617 108.901 22.1631 110.379 22.9642C111.857 23.7654 113.005 24.904 113.822 26.3768C114.638 27.8513 115.047 29.5421 115.047 31.4523C115.047 32.1585 114.999 32.7958 114.904 33.361ZM109.901 30.0368C109.877 28.7639 109.415 27.7448 108.516 26.9781C107.617 26.213 106.517 25.828 105.214 25.828C103.984 25.828 102.949 26.1999 102.108 26.9421C101.268 27.6842 100.754 28.7164 100.564 30.0368H109.901Z" fill="#233D7C"/>
<path d="M129.528 41.6717L125.481 35.5886L121.897 41.6717H116.573L122.997 31.8402L116.502 22.0791H122.111L126.121 28.1261L129.742 22.0791H135.066L128.605 31.8402L135.136 41.6717H129.528Z" fill="#233D7C"/>
<path d="M137.744 26.5359C138.537 25.0041 139.613 23.8245 140.973 22.9988C142.333 22.1731 143.854 21.7603 145.534 21.7603C147.001 21.7603 148.285 22.0552 149.385 22.6449C150.485 23.2347 151.367 23.9769 152.029 24.873V22.0797H157.034V41.6723H152.029V38.8069C151.39 39.726 150.508 40.4862 149.385 41.0874C148.261 41.6887 146.965 41.9885 145.498 41.9885C143.841 41.9885 142.333 41.5642 140.973 40.7155C139.612 39.8669 138.537 38.6709 137.744 37.126C136.951 35.5827 136.555 33.8084 136.555 31.8031C136.555 29.8257 136.95 28.0694 137.744 26.5359ZM151.321 28.7821C150.847 27.922 150.207 27.2617 149.403 26.8013C148.599 26.341 147.734 26.1116 146.812 26.1116C145.89 26.1116 145.038 26.3361 144.257 26.7833C143.476 27.2322 142.843 27.8859 142.358 28.746C141.873 29.6061 141.631 30.6268 141.631 31.8048C141.631 32.9843 141.873 34.0148 142.358 34.8995C142.843 35.7842 143.481 36.4625 144.275 36.9327C145.068 37.4045 145.913 37.6404 146.812 37.6404C147.734 37.6404 148.598 37.4111 149.403 36.9507C150.207 36.4903 150.847 35.8317 151.321 34.97C151.794 34.1099 152.031 33.0777 152.031 31.8752C152.029 30.6743 151.793 29.6422 151.321 28.7821Z" fill="#233D7C"/>
<path d="M179.395 31.0986C180.294 32.2307 180.743 33.5266 180.743 34.9896C180.743 36.3101 180.417 37.4716 179.766 38.4726C179.115 39.4753 178.175 40.2584 176.945 40.8236C175.715 41.3888 174.26 41.6723 172.579 41.6723H161.896V16.9878H172.119C173.799 16.9878 175.248 17.2598 176.466 17.8004C177.685 18.3427 178.607 19.0979 179.235 20.0645C179.862 21.0311 180.176 22.1272 180.176 23.3543C180.176 24.7927 179.791 25.9952 179.021 26.9618C178.252 27.9284 177.229 28.6116 175.952 29.013C177.348 29.2719 178.495 29.9665 179.395 31.0986ZM166.865 27.1732H171.409C172.591 27.1732 173.503 26.9078 174.141 26.377C174.781 25.8461 175.1 25.086 175.1 24.0964C175.1 23.1069 174.781 22.3402 174.141 21.7979C173.502 21.2556 172.591 20.9853 171.409 20.9853H166.865V27.1732ZM174.692 36.7917C175.366 36.2265 175.703 35.4254 175.703 34.3867C175.703 33.3251 175.348 32.4944 174.638 31.8932C173.928 31.2919 172.969 30.9921 171.762 30.9921H166.864V37.6404H171.869C173.077 37.6404 174.018 37.3586 174.692 36.7917Z" fill="#FE752F"/>
<path d="M202.857 33.361H188.483C188.601 34.7748 189.098 35.884 189.974 36.6851C190.849 37.4862 191.926 37.8876 193.204 37.8876C195.049 37.8876 196.362 37.098 197.143 35.5186H202.504C201.936 37.406 200.848 38.9558 199.238 40.1698C197.628 41.3838 195.654 41.9916 193.311 41.9916C191.416 41.9916 189.72 41.5738 188.217 40.7367C186.714 39.8995 185.543 38.715 184.703 37.1832C183.863 35.6513 183.443 33.882 183.443 31.8783C183.443 29.8501 183.858 28.0709 184.686 26.5374C185.515 25.0056 186.674 23.826 188.164 23.0003C189.655 22.1746 191.37 21.7617 193.311 21.7617C195.18 21.7617 196.854 22.1631 198.332 22.9642C199.81 23.7654 200.958 24.904 201.775 26.3768C202.591 27.8513 203 29.5421 203 31.4523C202.999 32.1585 202.951 32.7958 202.857 33.361ZM197.852 30.0368C197.829 28.7639 197.367 27.7448 196.468 26.9781C195.568 26.213 194.468 25.828 193.166 25.828C191.936 25.828 190.9 26.1999 190.06 26.9421C189.22 27.6842 188.705 28.7164 188.516 30.0368H197.852Z" fill="#FE752F"/>
</svg>
