<svg width="86" height="95" viewBox="0 0 86 95" fill="none" xmlns="http://www.w3.org/2000/svg">
<path d="M23.3575 76.4526C23.3575 82.019 23.3475 87.5903 23.3725 93.1567C23.3725 93.9048 23.1879 94.1842 22.3949 94.1792C16.5492 94.1492 10.6985 94.1692 4.85282 94.1642C1.9599 94.1642 0.0645403 92.3137 0.0595525 89.4308C0.0396013 81.3855 0.0495769 73.3452 0.0495769 65.2999C0.0495769 62.8011 -0.0850934 60.2872 0.0894792 57.7983C0.613197 50.2767 3.19189 43.4634 7.63102 37.3883C14.5341 27.9365 23.7665 22.2005 35.403 20.6793C38.9045 20.2204 42.5007 20.4199 46.057 20.4448C48.8701 20.4648 51.6782 20.6892 54.4913 20.789C55.3442 20.8189 55.7233 21.0484 55.7033 22.0359C55.6335 25.5922 55.6984 29.1535 55.6734 32.7098C55.6335 38.0367 52.3116 42.3113 47.1493 43.5682C45.9971 43.8475 44.7651 43.8525 43.5681 43.8724C40.8846 43.9173 38.2012 43.7876 35.5676 44.5857C28.4201 46.7504 23.4224 53.3043 23.3675 60.766C23.3276 65.9932 23.3625 71.2204 23.3575 76.4526Z" fill="#3959A9"/>
<path d="M62.2167 17.1131C62.2167 11.7014 62.2267 6.28465 62.2067 0.872909C62.2067 0.234474 62.3763 0.0100235 63.0397 0.0100235C69.0101 0.0249868 74.9805 -0.00493986 80.9509 0.019999C83.6193 0.0299746 85.5446 2.10489 85.5496 4.918C85.5596 11.3822 85.5496 17.8513 85.5496 24.3155C85.5496 27.5326 85.6344 30.7497 85.5696 33.9668C85.37 43.7379 81.9783 52.3169 75.6488 59.7087C69.1597 67.2902 60.89 71.854 51.0491 73.3154C47.4678 73.8491 43.7769 73.7194 40.1358 73.7344C37.173 73.7444 34.2053 73.5199 31.2425 73.3802C29.821 73.3104 29.826 73.2905 29.826 71.8789C29.826 68.4773 29.8011 65.0706 29.836 61.6689C29.8859 56.1574 33.1778 51.8181 38.3601 50.621C39.8116 50.2868 41.3628 50.3018 42.8691 50.3168C45.8568 50.3517 48.7996 50.232 51.5927 49C57.2788 46.5011 60.9049 42.2366 61.8377 36.1066C62.3614 32.65 62.1619 29.0838 62.2217 25.5624C62.2716 22.7493 62.2317 19.9312 62.2317 17.1181C62.2267 17.1181 62.2217 17.1181 62.2167 17.1181V17.1131Z" fill="#FF7919"/>
<path d="M85.546 54.5664C85.546 61.669 85.546 68.597 85.546 75.5251C85.546 81.4007 85.5361 87.2813 85.561 93.1569C85.561 93.8901 85.4114 94.1943 84.5984 94.1893C78.7826 94.1544 72.9668 94.1494 67.1511 94.1744C63.9739 94.1893 62.1284 91.865 62.1982 89.1716C62.3029 84.9669 62.2331 80.7572 62.2182 76.5525C62.2182 76.0139 62.3029 75.6547 62.8765 75.4053C72.7075 71.1558 80.1592 64.2976 85.2867 54.9056C85.3266 54.8308 85.3914 54.7659 85.5411 54.5714L85.546 54.5664Z" fill="#FF7919"/>
<path d="M0.0747436 39.4983C0.0747436 37.8424 0.0747436 36.3959 0.0747436 34.9544C0.0747436 23.6671 0.0747436 12.3797 0.0498047 1.0924C0.0498047 0.249461 0.274255 -0.00491613 1.13714 7.16491e-05C6.88807 0.0349861 12.639 0.015035 18.3899 0.015035C21.4524 0.015035 23.3578 1.92535 23.3627 4.99284C23.3677 9.19754 23.3578 13.4022 23.3877 17.6069C23.3877 18.2354 23.1832 18.5546 22.6196 18.789C15.3723 21.8465 9.35702 26.5301 4.53882 32.7249C3.08238 34.5953 1.8903 36.6702 0.583498 38.6504C0.438852 38.8698 0.30917 39.0993 0.0697559 39.4933L0.0747436 39.4983Z" fill="#3959A9"/>
</svg>
