<svg width="28" height="31" viewBox="0 0 28 31" fill="none" xmlns="http://www.w3.org/2000/svg">
<path d="M7.61758 24.9334C7.61758 26.7488 7.61433 28.5658 7.62246 30.3811C7.62246 30.6251 7.56228 30.7162 7.30364 30.7146C5.39718 30.7048 3.4891 30.7113 1.58265 30.7097C0.639182 30.7097 0.0210485 30.1062 0.0194218 29.166C0.0129152 26.5422 0.0161685 23.92 0.0161685 21.2962C0.0161685 20.4813 -0.0277515 19.6614 0.0291818 18.8497C0.199982 16.3967 1.04097 14.1747 2.4887 12.1934C4.74001 9.11088 7.75097 7.24021 11.546 6.74408C12.6879 6.59443 13.8607 6.6595 15.0205 6.66763C15.938 6.67414 16.8538 6.74733 17.7712 6.77987C18.0494 6.78963 18.173 6.86445 18.1665 7.18653C18.1437 8.34634 18.1649 9.50778 18.1568 10.6676C18.1437 12.4049 17.0604 13.7989 15.3768 14.2088C15.001 14.2999 14.5992 14.3016 14.2088 14.3081C13.3337 14.3227 12.4585 14.2804 11.5997 14.5407C9.26865 15.2466 7.63873 17.3841 7.62084 19.8176C7.60782 21.5223 7.61921 23.2271 7.61758 24.9334Z" fill="white"/>
<path d="M20.291 5.58113C20.291 3.8162 20.2943 2.04964 20.2877 0.28471C20.2877 0.0764976 20.3431 0.00329773 20.5594 0.00329773C22.5065 0.00817772 24.4536 -0.00158226 26.4008 0.00655106C27.271 0.00980438 27.8989 0.686496 27.9005 1.60393C27.9038 3.71209 27.9005 5.82187 27.9005 7.93003C27.9005 8.97923 27.9282 10.0284 27.9071 11.0776C27.842 14.2643 26.7359 17.0621 24.6716 19.4728C22.5553 21.9454 19.8583 23.4338 16.6489 23.9104C15.4809 24.0844 14.2772 24.0421 13.0897 24.047C12.1235 24.0503 11.1556 23.9771 10.1894 23.9315C9.7258 23.9087 9.72742 23.9022 9.72742 23.4419C9.72742 22.3325 9.71929 21.2215 9.73068 20.1121C9.74694 18.3146 10.8205 16.8994 12.5107 16.509C12.984 16.4001 13.4899 16.4049 13.9812 16.4098C14.9555 16.4212 15.9153 16.3822 16.8262 15.9804C18.6806 15.1654 19.8632 13.7746 20.1674 11.7755C20.3382 10.6482 20.2731 9.48512 20.2926 8.33669C20.3089 7.41926 20.2959 6.50019 20.2959 5.58275C20.2943 5.58275 20.2926 5.58275 20.291 5.58275V5.58113Z" fill="#FF7919"/>
<path d="M27.8992 17.7957C27.8992 20.112 27.8992 22.3715 27.8992 24.6309C27.8992 26.5471 27.896 28.4649 27.9041 30.3811C27.9041 30.6203 27.8553 30.7195 27.5902 30.7179C25.6935 30.7065 23.7968 30.7049 21.9001 30.713C20.8639 30.7179 20.262 29.9598 20.2848 29.0814C20.319 27.7102 20.2962 26.3373 20.2913 24.966C20.2913 24.7903 20.319 24.6732 20.506 24.5919C23.7122 23.2059 26.1424 20.9693 27.8146 17.9063C27.8277 17.8819 27.8488 17.8607 27.8976 17.7973L27.8992 17.7957Z" fill="#FF7919"/>
<path d="M0.0237583 12.8816C0.0237583 12.3415 0.0237583 11.8698 0.0237583 11.3997C0.0237583 7.71854 0.0237583 4.0374 0.015625 0.356263C0.015625 0.0813566 0.088825 -0.0016033 0.370238 2.33669e-05C2.24579 0.01141 4.12133 0.00490336 5.99688 0.00490336C6.99565 0.00490336 7.61704 0.627916 7.61867 1.62831C7.62029 2.99959 7.61704 4.37087 7.6268 5.74215C7.6268 5.9471 7.56011 6.05121 7.37629 6.12766C5.01275 7.12481 3.05099 8.65225 1.47963 10.6726C1.00464 11.2826 0.615865 11.9593 0.189678 12.605C0.142505 12.6766 0.100212 12.7514 0.0221317 12.8799L0.0237583 12.8816Z" fill="white"/>
</svg>
